<svg xmlns="http://www.w3.org/2000/svg" width="21.768" height="21.768" viewBox="0 0 21.768 21.768">
  <g id="video-play-square-button" transform="translate(21.771 21.768) rotate(180)">
    <g id="Group_58" data-name="Group 58" transform="translate(0.003)">
      <path id="Path_219" data-name="Path 219" d="M20.573,1.2A3.931,3.931,0,0,0,17.69,0H4.084A3.932,3.932,0,0,0,1.2,1.2,3.932,3.932,0,0,0,0,4.081v13.6A3.932,3.932,0,0,0,1.2,20.57a3.931,3.931,0,0,0,2.884,1.2h13.6a4.089,4.089,0,0,0,4.081-4.082V4.081A3.932,3.932,0,0,0,20.573,1.2Zm-2.43,16.489a.46.46,0,0,1-.453.453H4.084a.46.46,0,0,1-.453-.453V4.081a.46.46,0,0,1,.453-.453h13.6a.459.459,0,0,1,.453.453V17.686h0Z" transform="translate(-0.003 0)" fill="rgba(92,94,139,0.63)"/>
      <path id="Path_220" data-name="Path 220" d="M135.16,109.634a.893.893,0,0,0-.525.17l-6.349,4.535a.9.9,0,0,0,0,1.473l6.349,4.535a.891.891,0,0,0,.525.17.92.92,0,0,0,.907-.907v-9.07a.92.92,0,0,0-.907-.907Z" transform="translate(-121.555 -104.192)" fill="rgba(92,94,139,0.63)"/>
    </g>
  </g>
</svg>
