<svg xmlns="http://www.w3.org/2000/svg" width="23.159" height="20.677" viewBox="0 0 23.159 20.677">
  <g id="share-option" transform="translate(0 -27.408)">
    <path id="Path_389" data-name="Path 389" d="M22.913,34.27,16.3,27.654a.827.827,0,0,0-1.409.582v3.308H11.993q-9.215,0-11.308,5.208A11.769,11.769,0,0,0,0,41.055a15.519,15.519,0,0,0,1.641,5.828q.039.091.136.31t.174.388a1.469,1.469,0,0,0,.168.284.442.442,0,0,0,.362.22.377.377,0,0,0,.3-.129.482.482,0,0,0,.11-.323,2.631,2.631,0,0,0-.032-.343,2.673,2.673,0,0,1-.032-.3q-.065-.878-.065-1.589a11,11,0,0,1,.226-2.339,7.023,7.023,0,0,1,.627-1.79,4.5,4.5,0,0,1,1.034-1.305,6.067,6.067,0,0,1,1.363-.9,7.392,7.392,0,0,1,1.719-.549,16.387,16.387,0,0,1,1.99-.278q1-.078,2.268-.077h2.895v3.308a.823.823,0,0,0,1.409.582l6.617-6.617a.812.812,0,0,0,0-1.163Z" transform="translate(0 0)" fill="rgba(92,94,139,0.63)"/>
  </g>
</svg>
