<svg xmlns="http://www.w3.org/2000/svg" width="15.241" height="15.242" viewBox="0 0 15.241 15.242">
  <g id="plus-symbol-in-a-rounded-black-square" transform="translate(-97.473 -17)">
    <path id="Path_231" data-name="Path 231" d="M14.406.838A2.752,2.752,0,0,0,12.387,0H2.861A2.753,2.753,0,0,0,.841.838,2.753,2.753,0,0,0,0,2.858v9.526A2.753,2.753,0,0,0,.841,14.4a2.753,2.753,0,0,0,2.019.839h9.526a2.863,2.863,0,0,0,2.858-2.858V2.858A2.753,2.753,0,0,0,14.406.838ZM12.7,8.256a.644.644,0,0,1-.635.635H8.894v3.175a.645.645,0,0,1-.635.635H6.989a.644.644,0,0,1-.635-.635V8.891H3.178a.644.644,0,0,1-.635-.635V6.986a.644.644,0,0,1,.635-.635H6.354V3.175a.644.644,0,0,1,.635-.635h1.27a.645.645,0,0,1,.635.635V6.351h3.175a.644.644,0,0,1,.635.635v1.27Z" transform="translate(97.47 17)" fill="#5c5e8b"/>
  </g>
</svg>
