<svg xmlns="http://www.w3.org/2000/svg" width="11.165" height="11.165" viewBox="0 0 11.165 11.165">
  <g id="plus-symbol-in-a-rounded-black-square" transform="translate(-97.473 -17)">
    <path id="Path_231" data-name="Path 231" d="M10.554.614A2.016,2.016,0,0,0,9.075,0H2.1A2.017,2.017,0,0,0,.617.614,2.017,2.017,0,0,0,0,2.093V9.071a2.017,2.017,0,0,0,.614,1.479,2.016,2.016,0,0,0,1.479.614H9.074a2.1,2.1,0,0,0,2.093-2.093V2.093A2.017,2.017,0,0,0,10.554.614ZM9.307,6.048a.472.472,0,0,1-.465.465H6.516V8.839a.472.472,0,0,1-.465.465H5.12a.472.472,0,0,1-.465-.465V6.513H2.329a.472.472,0,0,1-.465-.465v-.93a.472.472,0,0,1,.465-.465H4.655V2.326a.472.472,0,0,1,.465-.465h.93a.472.472,0,0,1,.465.465V4.652H8.842a.472.472,0,0,1,.465.465v.93Z" transform="translate(97.47 17)" fill="#5c5e8b"/>
  </g>
</svg>
